<?xml version="1.0" encoding="UTF-8"?>
<svg xmlns="http://www.w3.org/2000/svg" width="24" height="24" version="1.1" viewBox="0 0 24 24">
  <defs>
    <style>
      .cls-1 {
        stroke: #000;
      }

      .cls-1, .cls-2 {
        fill: none;
        stroke-miterlimit: 10;
      }

      .cls-3 {
        fill: #fff;
      }

      .cls-2 {
        stroke: #fff;
        stroke-linecap: round;
      }

      .cls-4 {
        display: none;
      }
    </style>
  </defs>
  <!-- Generator: Adobe Illustrator 28.6.0, SVG Export Plug-In . SVG Version: 1.2.0 Build 709)  -->
  <g>
    <g id="Layer_1">
      <g id="Layer_1-2" data-name="Layer_1">
        <path class="cls-4" d="M19.7,1c1.8,0,3.2,1.5,3.2,3.2v15.5c0,1.8-1.5,3.2-3.2,3.2H4.2c-1.8,0-3.2-1.5-3.2-3.2V4.2C1,2.4,2.5,1,4.2,1h15.5M19.7,0H4.2C1.9,0,0,1.9,0,4.2v15.5c0,2.4,1.9,4.2,4.2,4.2h15.5c2.4,0,4.2-1.9,4.2-4.2V4.2c0-2.4-1.9-4.2-4.3-4.2h0Z"/>
        <rect class="cls-1" x="2.3" y="2.3" width="19.3" height="7.8" rx="1" ry="1"/>
        <g>
          <g>
            <line class="cls-1" x1="12" y1="3.5" x2="12" y2="8.9"/>
            <line class="cls-1" x1="14.3" y1="4.9" x2="9.7" y2="7.6"/>
            <line class="cls-1" x1="9.7" y1="4.9" x2="14.3" y2="7.6"/>
          </g>
          <g>
            <line class="cls-1" x1="17.8" y1="3.5" x2="17.8" y2="8.9"/>
            <line class="cls-1" x1="20.1" y1="4.9" x2="15.5" y2="7.6"/>
            <line class="cls-1" x1="15.5" y1="4.9" x2="20.1" y2="7.6"/>
          </g>
          <g>
            <line class="cls-1" x1="6.2" y1="3.5" x2="6.2" y2="8.9"/>
            <line class="cls-1" x1="8.5" y1="4.9" x2="3.9" y2="7.6"/>
            <line class="cls-1" x1="3.9" y1="4.9" x2="8.5" y2="7.6"/>
          </g>
        </g>
        <g>
          <rect x="8.1" y="15.4" width="7.8" height="6.1" rx="1.1" ry="1.1"/>
          <path class="cls-1" d="M13.8,15.8v-1.5c0-1-.8-1.9-1.9-1.9s-1.9.8-1.9,1.9v1.5"/>
          <circle class="cls-3" cx="12" cy="19.1" r="1"/>
          <line class="cls-2" x1="12" y1="19.1" x2="12" y2="17.1"/>
        </g>
      </g>
      <path d="M21.5,1c.8,0,1.5.7,1.5,1.5v19c0,.8-.7,1.5-1.5,1.5H2.5c-.8,0-1.5-.7-1.5-1.5V2.5c0-.8.7-1.5,1.5-1.5h19M21.5,0H2.5C1.1,0,0,1.1,0,2.5v19c0,1.4,1.1,2.5,2.5,2.5h19c1.4,0,2.5-1.1,2.5-2.5V2.5c0-1.4-1.1-2.5-2.5-2.5h0Z"/>
    </g>
  </g>
</svg>