<?xml version="1.0" encoding="UTF-8"?>
<svg xmlns="http://www.w3.org/2000/svg" width="24" height="24" version="1.1" viewBox="0 0 24 24">
  <defs>
    <style>
      .cls-1 {
        fill: #fff;
      }

      .cls-2 {
        stroke: #fff;
        stroke-linecap: round;
        stroke-width: 2px;
      }

      .cls-2, .cls-3 {
        fill: none;
        stroke-miterlimit: 10;
      }

      .cls-4 {
        fill: #e59700;
      }

      .cls-5 {
        display: none;
      }

      .cls-3 {
        stroke: #000;
        stroke-width: 3px;
      }
    </style>
  </defs>
  <!-- Generator: Adobe Illustrator 28.6.0, SVG Export Plug-In . SVG Version: 1.2.0 Build 709)  -->
  <g>
    <g id="Layer_1">
      <g id="Layer_1-2" data-name="Layer_1">
        <g id="Layer_1-2">
          <path class="cls-5" d="M19.8,2.2c1.8,0,3.2,1.5,3.2,3.2v15.5c0,1.8-1.5,3.2-3.2,3.2H4.2c-1.8,0-3.2-1.5-3.2-3.2V5.4c0-1.8,1.5-3.2,3.2-3.2h15.5M19.8,1.2H4.2C1.9,1.2,0,3.1,0,5.4v15.5c0,2.4,1.9,4.2,4.2,4.2h15.5c2.4,0,4.2-1.9,4.2-4.2V5.4c0-2.4-1.9-4.2-4.3-4.2h0Z"/>
          <g>
            <rect class="cls-4" x="0" y="0" width="24" height="9.2" rx="4.6" ry="4.6"/>
            <g>
              <circle class="cls-1" cx="5" cy="4.6" r="2.5"/>
              <circle class="cls-1" cx="19" cy="4.6" r="2.5"/>
              <circle class="cls-1" cx="12" cy="4.6" r="2.5"/>
            </g>
            <g>
              <rect x="2.7" y="11.4" width="18.6" height="12.6" rx="2.6" ry="2.6"/>
              <path class="cls-3" d="M17,13.6v-3.9c0-2.6-2.1-5-5-5s-5,2.1-5,5v3.9"/>
              <circle class="cls-1" cx="12" cy="19.9" r="2.3"/>
              <line class="cls-2" x1="12" y1="19.5" x2="12" y2="14.8"/>
            </g>
          </g>
        </g>
      </g>
    </g>
  </g>
</svg>